<svg width="24" height="24" viewBox="0 0 24 24" fill="none" xmlns="http://www.w3.org/2000/svg">
<path d="M4.22177 23C3.61062 23 3.08726 22.7848 2.65168 22.3543C2.21684 21.9231 1.99942 21.405 1.99942 20.8V5.4C1.99942 4.795 2.21684 4.27727 2.65168 3.8468C3.08726 3.4156 3.61062 3.2 4.22177 3.2H5.33295V1H7.5553V3.2H16.4447V1H18.667V3.2H19.7782C20.3894 3.2 20.9127 3.4156 21.3483 3.8468C21.7832 4.27727 22.0006 4.795 22.0006 5.4V20.8C22.0006 21.405 21.7832 21.9231 21.3483 22.3543C20.9127 22.7848 20.3894 23 19.7782 23H4.22177ZM4.22177 20.8H19.7782V9.8H4.22177V20.8ZM4.22177 7.6H19.7782V5.4H4.22177V7.6Z" fill="#282828"/>
<path d="M10.8888 12H13.1112V18.6H10.8888V12Z" fill="#282828"/>
<path d="M8.66647 14.2H15.3335V16.4H8.66647V14.2Z" fill="#282828"/>
</svg>
