<svg width="24" height="24" viewBox="0 0 24 24" fill="none" xmlns="http://www.w3.org/2000/svg">
<mask id="mask0_37_820" style="mask-type:alpha" maskUnits="userSpaceOnUse" x="0" y="0" width="24" height="24">
<rect width="24" height="24" fill="#D9D9D9"/>
</mask>
<g mask="url(#mask0_37_820)">
<path d="M12 22C10.75 22 9.57934 21.7626 8.48801 21.288C7.39601 20.8126 6.44601 20.1706 5.63801 19.362C4.82934 18.554 4.18734 17.604 3.71201 16.512C3.23734 15.4206 3.00001 14.25 3.00001 13C3.00001 11.75 3.23734 10.579 3.71201 9.48698C4.18734 8.39564 4.82934 7.44564 5.63801 6.63698C6.44601 5.82898 7.39601 5.18764 8.48801 4.71298C9.57934 4.23764 10.75 3.99998 12 3.99998C13.25 3.99998 14.421 4.23764 15.513 4.71298C16.6043 5.18764 17.5543 5.82898 18.363 6.63698C19.171 7.44564 19.8127 8.39564 20.288 9.48698C20.7627 10.579 21 11.75 21 13C21 14.25 20.7627 15.4206 20.288 16.512C19.8127 17.604 19.171 18.554 18.363 19.362C17.5543 20.1706 16.6043 20.8126 15.513 21.288C14.421 21.7626 13.25 22 12 22ZM14.8 17.2L16.2 15.8L13 12.6V7.99998H11V13.4L14.8 17.2ZM5.60001 2.34998L7.00001 3.74998L2.75001 7.99998L1.35001 6.59998L5.60001 2.34998ZM18.4 2.34998L22.65 6.59998L21.25 7.99998L17 3.74998L18.4 2.34998ZM12 20C13.95 20 15.604 19.3206 16.962 17.962C18.3207 16.604 19 14.95 19 13C19 11.05 18.3207 9.39564 16.962 8.03698C15.604 6.67898 13.95 5.99998 12 5.99998C10.05 5.99998 8.39601 6.67898 7.03801 8.03698C5.67934 9.39564 5.00001 11.05 5.00001 13C5.00001 14.95 5.67934 16.604 7.03801 17.962C8.39601 19.3206 10.05 20 12 20Z" fill="#1C1B1F"/>
</g>
</svg>
