<svg width="313" height="115" viewBox="0 0 313 115" fill="none" xmlns="http://www.w3.org/2000/svg">
<path d="M22.8 91.66C18.3267 91.66 14.4034 90.78 11.03 89.02C7.73005 87.1867 5.20005 84.6933 3.44005 81.54C1.68005 78.3867 0.800049 74.8667 0.800049 70.98C0.800049 67.68 1.38672 64.82 2.56005 62.4C3.80672 59.9067 5.67672 58 8.17005 56.68C10.6634 55.2867 13.7801 54.59 17.5201 54.59H26.21C28.9967 54.59 31.3434 54.7367 33.25 55.03C35.23 55.25 37.1734 55.69 39.0801 56.35V52.94C39.0801 50.0067 38.09 47.8433 36.1101 46.45C34.1301 45.0567 31.16 44.36 27.2001 44.36C23.6067 44.36 20.6367 44.9467 18.2901 46.12C15.9434 47.22 14.0367 48.98 12.57 51.4L2.34005 44.91C4.32005 40.4367 7.58338 37.0633 12.13 34.79C16.6767 32.4433 22.0301 31.27 28.1901 31.27C36.1101 31.27 42.1967 33.1033 46.4501 36.77C50.7767 40.4367 52.94 45.8633 52.94 53.05V91H39.41V84.07C37.7967 86.49 35.5601 88.36 32.7001 89.68C29.9134 91 26.7234 91.66 23.1301 91.66H22.8ZM26.43 79.56C30.39 79.56 33.47 78.7533 35.67 77.14C37.9434 75.5267 39.0801 73.3267 39.0801 70.54C39.0801 69.66 38.9334 68.9267 38.64 68.34C38.3467 67.7533 37.8701 67.3133 37.2101 67.02C36.5501 66.6533 35.7067 66.47 34.6801 66.47H19.06C17.4467 66.47 16.2734 66.8367 15.54 67.57C14.88 68.23 14.55 69.22 14.55 70.54C14.55 73.2533 15.7234 75.4533 18.07 77.14C20.49 78.7533 23.1667 79.56 26.1001 79.56H26.43Z" fill="black"/>
<path d="M62.2454 32.26H76.1054V39.08C77.9387 36.5867 80.2487 34.68 83.0354 33.36C85.8954 31.9667 89.3787 31.27 93.4854 31.27C98.912 31.27 103.605 32.5167 107.565 35.01C111.525 37.5033 114.532 40.9867 116.585 45.46C118.639 49.9333 119.665 55.1033 119.665 60.97C119.665 66.8367 118.602 72.0433 116.475 76.59C114.349 81.1367 111.269 84.6933 107.235 87.26C103.202 89.7533 98.362 91 92.7154 91C88.7554 91 85.4554 90.45 82.8154 89.35C80.1754 88.1767 77.9387 86.4533 76.1054 84.18V114.21H62.2454V32.26ZM91.1754 77.58C95.8687 77.58 99.4254 76.1133 101.845 73.18C104.265 70.1733 105.475 66.1767 105.475 61.19C105.475 56.13 104.265 52.17 101.845 49.31C99.4254 46.45 95.8687 45.02 91.1754 45.02C86.482 45.02 82.7787 46.4867 80.0654 49.42C77.4254 52.28 76.1054 56.2033 76.1054 61.19C76.1054 66.1767 77.4254 70.1733 80.0654 73.18C82.7787 76.1133 86.482 77.58 91.1754 77.58Z" fill="black"/>
<path d="M126.299 32.26H140.159V39.08C141.992 36.5867 144.302 34.68 147.089 33.36C149.949 31.9667 153.432 31.27 157.539 31.27C162.966 31.27 167.659 32.5167 171.619 35.01C175.579 37.5033 178.586 40.9867 180.639 45.46C182.692 49.9333 183.719 55.1033 183.719 60.97C183.719 66.8367 182.656 72.0433 180.529 76.59C178.402 81.1367 175.322 84.6933 171.289 87.26C167.256 89.7533 162.416 91 156.769 91C152.809 91 149.509 90.45 146.869 89.35C144.229 88.1767 141.992 86.4533 140.159 84.18V114.21H126.299V32.26ZM155.229 77.58C159.922 77.58 163.479 76.1133 165.899 73.18C168.319 70.1733 169.529 66.1767 169.529 61.19C169.529 56.13 168.319 52.17 165.899 49.31C163.479 46.45 159.922 45.02 155.229 45.02C150.536 45.02 146.832 46.4867 144.119 49.42C141.479 52.28 140.159 56.2033 140.159 61.19C140.159 66.1767 141.479 70.1733 144.119 73.18C146.832 76.1133 150.536 77.58 155.229 77.58Z" fill="black"/>
<path d="M216.862 91C210.482 91 205.312 89.1667 201.352 85.5C197.466 81.8333 195.522 76.6267 195.522 69.88V45.13H183.752V32.26H195.522V18.4H209.382V32.26H212.682C216.276 32.26 220.089 31.7467 224.122 30.72L226.212 43.26C221.666 44.5067 217.119 45.13 212.572 45.13H209.382V69.99C209.382 72.63 210.152 74.6467 211.692 76.04C213.232 77.4333 215.542 78.13 218.622 78.13H225.332V91H216.862Z" fill="black"/>
<path d="M231.96 32.26H245.82V91H231.96V32.26ZM231.63 9.92999H246.15V24.89H231.63V9.92999Z" fill="black"/>
<path d="M249.89 32.26H264.85L281.13 77.25L297.41 32.26H312.37L290.48 91H271.78L249.89 32.26Z" fill="black"/>
<path d="M251.5 15C251.5 23.2843 244.784 30 236.5 30C228.216 30 221.5 23.2843 221.5 15C221.5 6.71573 228.216 0 236.5 0C244.784 0 251.5 6.71573 251.5 15Z" fill="#EBB220"/>
</svg>
