<svg width="48" height="48" viewBox="0 0 48 48" fill="none" xmlns="http://www.w3.org/2000/svg">
<path d="M26.62 2.66003C30.2713 3.10831 33.7466 4.48597 36.7132 6.66123C39.6799 8.83649 42.0389 11.7366 43.5644 15.0841C45.0899 18.4316 45.7309 22.1146 45.4262 25.7806C45.1215 29.4467 43.8812 32.9733 41.824 36.023M38.105 40.226C35.5922 42.4106 32.6064 43.9817 29.3829 44.8155C26.1593 45.6493 22.7861 45.723 19.5293 45.0309C16.2724 44.3387 13.2207 42.8995 10.6149 40.8268C8.0091 38.754 5.9203 36.1044 4.51315 33.0867C3.10601 30.069 2.41898 26.7658 2.50622 23.4373C2.59346 20.1088 3.45258 16.846 5.01587 13.9062C6.57916 10.9663 8.80389 8.42977 11.5147 6.49639C14.2255 4.56301 17.3483 3.28567 20.637 2.76503L38.105 40.226Z" stroke="#DDA81E" stroke-linecap="round" stroke-linejoin="round"/>
<path d="M24 18.248C27.464 7.30997 45.931 20.708 24 33.782M24 18.248C20.536 7.30997 2.06901 20.708 24 33.782V18.248Z" stroke="#DDA81E" stroke-linecap="round" stroke-linejoin="round"/>
</svg>
