<svg width="70" height="70" viewBox="0 0 70 70" fill="none" xmlns="http://www.w3.org/2000/svg">
<path fill-rule="evenodd" clip-rule="evenodd" d="M19.5781 23.8788C18.3356 23.8788 17.3294 22.8419 17.5219 21.6169C18.725 14.175 24.395 8.75 34.2344 8.75C44.0781 8.75 50.715 14.7 50.715 22.8156C50.715 28.6956 47.8056 32.8256 42.8838 35.8225C38.0713 38.7056 36.6975 40.7137 36.6975 44.6162V44.7475C36.6975 45.3277 36.467 45.8841 36.0568 46.2943C35.6466 46.7045 35.0902 46.935 34.51 46.935H31.1413C30.5649 46.935 30.0118 46.7076 29.6021 46.302C29.1925 45.8965 28.9595 45.3457 28.9538 44.7694L28.9406 43.8944C28.7525 38.5525 31.0275 35.14 36.1375 32.0294C40.6438 29.2644 42.2494 27.0638 42.2494 23.1569C42.2494 18.8738 38.9331 15.7281 33.8231 15.7281C29.4088 15.7281 26.3419 18.0425 25.3444 21.8619C25.0556 22.9731 24.1281 23.8788 22.9819 23.8788H19.5825H19.5781ZM32.795 61.25C35.5163 61.25 37.5856 59.1763 37.5856 56.4813C37.5856 53.7775 35.5163 51.7038 32.795 51.7038C30.1438 51.7038 28.0394 53.7775 28.0394 56.4769C28.0394 59.1763 30.1438 61.25 32.795 61.25Z" fill="#EBB220"/>
</svg>
