<svg width="70" height="70" viewBox="0 0 70 70" fill="none" xmlns="http://www.w3.org/2000/svg">
<mask id="mask0_228_2079" style="mask-type:alpha" maskUnits="userSpaceOnUse" x="0" y="0" width="70" height="70">
<rect width="70" height="70" fill="#D9D9D9"/>
</mask>
<g mask="url(#mask0_228_2079)">
<path d="M7.29167 64.1666C6.85417 64.1666 6.50222 64.0334 6.23584 63.767C5.9675 63.4987 5.83334 63.1457 5.83334 62.7082V58.3332H46.6667V62.7082C46.6667 63.1457 46.5335 63.4987 46.2671 63.767C45.9987 64.0334 45.6458 64.1666 45.2083 64.1666H7.29167ZM5.83334 52.4999V48.1249C5.83334 47.6874 5.9675 47.3345 6.23584 47.0662C6.50222 46.7998 6.85417 46.6666 7.29167 46.6666H20.4167V40.8333H32.0833V46.6666H45.2083C45.6458 46.6666 45.9987 46.7998 46.2671 47.0662C46.5335 47.3345 46.6667 47.6874 46.6667 48.1249V52.4999H5.83334ZM52.5 64.1666V46.3749C50.75 44.3819 49.3403 42.4131 48.2708 40.4687C47.2014 38.5242 46.6667 36.1666 46.6667 33.3958V5.83325H64.1667V33.3958C64.1667 36.1666 63.6436 38.5359 62.5975 40.5037C61.5533 42.4734 60.1319 44.4305 58.3333 46.3749V58.3332H64.1667V64.1666H52.5ZM52.5 23.3333H58.3333V11.6666H52.5V23.3333ZM55.4167 40.9791C56.2917 39.9583 56.9965 38.7916 57.5312 37.4791C58.066 36.1666 58.3333 34.8055 58.3333 33.3958V29.1666H52.5V33.3958C52.5 34.8055 52.7431 36.1666 53.2292 37.4791C53.7153 38.7916 54.4444 39.9583 55.4167 40.9791Z" fill="#EBB220"/>
</g>
</svg>
