<svg width="34" height="34" viewBox="0 0 34 34" fill="none" xmlns="http://www.w3.org/2000/svg">
<path d="M24.0833 8.49992C25.6481 8.49992 26.9167 7.23139 26.9167 5.66659C26.9167 4.10178 25.6481 2.83325 24.0833 2.83325C22.5185 2.83325 21.25 4.10178 21.25 5.66659C21.25 7.23139 22.5185 8.49992 24.0833 8.49992Z" fill="#EBB220"/>
<path d="M22.3507 15.5394C22.676 16.024 23.1424 16.3968 23.6868 16.6071C24.2312 16.8175 24.8272 16.8552 25.3937 16.7152L30.0914 15.5408L29.4072 12.7925L24.7095 13.9669L22.7559 11.0386C22.3385 10.4133 21.6908 9.97835 20.9539 9.82879L15.5054 8.73796C14.8959 8.61563 14.263 8.69738 13.7046 8.97058C13.1462 9.24378 12.6932 9.69324 12.4157 10.2495L10.0668 14.9472L12.6013 16.2151L14.9501 11.516L17.7367 12.0742L10.5315 24.0833H4.25V26.9166H10.5315C11.5203 26.9166 12.4511 26.3896 12.9611 25.541L15.6783 21.0134L23.001 22.4782L25.5737 30.1976L28.2597 29.3009L25.6884 21.5829C25.5297 21.109 25.249 20.6854 24.8744 20.3546C24.4999 20.0238 24.0447 19.7976 23.5549 19.6987L19.2497 18.8388L21.76 14.654L22.3507 15.5394Z" fill="#EBB220"/>
</svg>
