<svg width="70" height="70" viewBox="0 0 70 70" fill="none" xmlns="http://www.w3.org/2000/svg">
<path d="M43.75 65.625H37.1875C36.0275 65.6238 34.9154 65.1625 34.0952 64.3423C33.275 63.5221 32.8137 62.41 32.8125 61.25V50.3125H37.1875V61.25H43.75V50.3125H48.125V41.5625C48.1244 40.9825 47.8938 40.4265 47.4837 40.0163C47.0735 39.6062 46.5175 39.3756 45.9375 39.375H26.8625L22.4875 26.25H8.75C8.17002 26.2506 7.61395 26.4812 7.20384 26.8913C6.79373 27.3015 6.56308 27.8575 6.5625 28.4375V41.5625H10.9375V61.25H19.6875V45.9375H24.0625V61.25C24.0613 62.41 23.6 63.5221 22.7798 64.3423C21.9596 65.1625 20.8475 65.6238 19.6875 65.625H10.9375C9.77753 65.6238 8.66541 65.1625 7.84519 64.3423C7.02497 63.5221 6.56366 62.41 6.5625 61.25V45.9375C5.40253 45.9363 4.29041 45.475 3.47019 44.6548C2.64997 43.8346 2.18866 42.7225 2.1875 41.5625V28.4375C2.18924 26.6976 2.8812 25.0294 4.11153 23.799C5.34186 22.5687 7.01005 21.8767 8.75 21.875H22.4875C23.4056 21.8744 24.3006 22.163 25.0455 22.6997C25.7903 23.2365 26.3472 23.9942 26.6372 24.8653L30.0125 35H45.9375C47.6774 35.0017 49.3456 35.6937 50.576 36.924C51.8063 38.1544 52.4983 39.8226 52.5 41.5625V50.3125C52.4988 51.4725 52.0375 52.5846 51.2173 53.4048C50.3971 54.225 49.285 54.6863 48.125 54.6875V61.25C48.1238 62.41 47.6625 63.5221 46.8423 64.3423C46.0221 65.1625 44.91 65.6238 43.75 65.625ZM61.25 65.625H56.875V41.5625H63.4375V28.4375C63.4369 27.8575 63.2063 27.3015 62.7962 26.8913C62.386 26.4812 61.83 26.2506 61.25 26.25H52.5V21.875H61.25C62.9899 21.8767 64.6581 22.5687 65.8885 23.799C67.1188 25.0294 67.8108 26.6976 67.8125 28.4375V41.5625C67.8113 42.7225 67.35 43.8346 66.5298 44.6548C65.7096 45.475 64.5975 45.9363 63.4375 45.9375H61.25V65.625ZM15.3125 19.6875C13.5819 19.6875 11.8902 19.1743 10.4513 18.2129C9.01233 17.2514 7.89082 15.8848 7.22855 14.286C6.56629 12.6871 6.39301 10.9278 6.73063 9.23046C7.06825 7.53313 7.90161 5.97403 9.12532 4.75032C10.349 3.52661 11.9081 2.69325 13.6055 2.35563C15.3028 2.01801 17.0621 2.19129 18.661 2.85356C20.2598 3.51582 21.6264 4.63733 22.5879 6.07626C23.5493 7.51519 24.0625 9.20692 24.0625 10.9375C24.0596 13.2573 23.1368 15.4812 21.4965 17.1215C19.8562 18.7618 17.6323 19.6846 15.3125 19.6875ZM15.3125 6.5625C14.4472 6.5625 13.6013 6.81909 12.8819 7.29982C12.1624 7.78056 11.6017 8.46384 11.2705 9.26326C10.9394 10.0627 10.8528 10.9424 11.0216 11.791C11.1904 12.6397 11.6071 13.4192 12.2189 14.0311C12.8308 14.643 13.6103 15.0596 14.459 15.2284C15.3076 15.3973 16.1873 15.3106 16.9867 14.9795C17.7862 14.6483 18.4694 14.0876 18.9502 13.3681C19.4309 12.6487 19.6875 11.8028 19.6875 10.9375C19.6863 9.77754 19.225 8.66541 18.4048 7.84519C17.5846 7.02497 16.4725 6.56366 15.3125 6.5625ZM54.6875 19.6875C52.9569 19.6875 51.2652 19.1743 49.8263 18.2129C48.3873 17.2514 47.2658 15.8848 46.6036 14.286C45.9413 12.6871 45.768 10.9278 46.1056 9.23046C46.4432 7.53313 47.2766 5.97403 48.5003 4.75032C49.724 3.52661 51.2831 2.69325 52.9805 2.35563C54.6778 2.01801 56.4371 2.19129 58.036 2.85356C59.6348 3.51582 61.0014 4.63733 61.9629 6.07626C62.9243 7.51519 63.4375 9.20692 63.4375 10.9375C63.4346 13.2573 62.5118 15.4812 60.8715 17.1215C59.2312 18.7618 57.0073 19.6846 54.6875 19.6875ZM54.6875 6.5625C53.8222 6.5625 52.9763 6.81909 52.2569 7.29982C51.5374 7.78056 50.9767 8.46384 50.6455 9.26326C50.3144 10.0627 50.2278 10.9424 50.3966 11.791C50.5654 12.6397 50.9821 13.4192 51.5939 14.0311C52.2058 14.643 52.9853 15.0596 53.834 15.2284C54.6826 15.3973 55.5623 15.3106 56.3617 14.9795C57.1612 14.6483 57.8444 14.0876 58.3252 13.3681C58.8059 12.6487 59.0625 11.8028 59.0625 10.9375C59.0613 9.77754 58.6 8.66541 57.7798 7.84519C56.9596 7.02497 55.8475 6.56366 54.6875 6.5625Z" fill="#EBB220"/>
<path d="M40.4688 32.8125C38.9545 32.8125 37.4742 32.3635 36.2152 31.5222C34.9561 30.6809 33.9748 29.4852 33.3953 28.0862C32.8158 26.6872 32.6642 25.1478 32.9596 23.6626C33.255 22.1774 33.9842 20.8132 35.055 19.7425C36.1257 18.6717 37.4899 17.9425 38.9751 17.6471C40.4603 17.3517 41.9997 17.5033 43.3987 18.0828C44.7977 18.6623 45.9934 19.6436 46.8347 20.9027C47.676 22.1617 48.125 23.642 48.125 25.1563C48.1227 27.1861 47.3153 29.1322 45.88 30.5675C44.4447 32.0028 42.4986 32.8102 40.4688 32.8125ZM40.4688 21.875C39.8198 21.875 39.1854 22.0674 38.6458 22.428C38.1062 22.7885 37.6856 23.301 37.4373 23.9006C37.1889 24.5001 37.1239 25.1599 37.2506 25.7964C37.3772 26.4329 37.6897 27.0176 38.1486 27.4764C38.6075 27.9353 39.1921 28.2478 39.8286 28.3745C40.4651 28.5011 41.1249 28.4361 41.7244 28.1877C42.324 27.9394 42.8365 27.5188 43.197 26.9792C43.5576 26.4396 43.75 25.8052 43.75 25.1563C43.7488 24.2864 43.4028 23.4524 42.7877 22.8373C42.1726 22.2222 41.3386 21.8762 40.4688 21.875Z" fill="#EBB220"/>
</svg>
