<svg width="32" height="32" viewBox="0 0 32 32" fill="none" xmlns="http://www.w3.org/2000/svg">
<mask id="mask0_42_1661" style="mask-type:alpha" maskUnits="userSpaceOnUse" x="0" y="0" width="32" height="32">
<rect width="32" height="32" fill="#D9D9D9"/>
</mask>
<g mask="url(#mask0_42_1661)">
<path d="M20 28C17.3778 28 15.0444 27.2556 13 25.7667C10.9556 24.2778 9.51111 22.3556 8.66667 20H4V17.3333H8.06667C8 16.8 7.97244 16.3053 7.984 15.8493C7.99467 15.3942 8.02222 15 8.06667 14.6667H4V12H8.66667C9.51111 9.64444 10.9556 7.72222 13 6.23333C15.0444 4.74444 17.3778 4 20 4C21.5333 4 22.9836 4.272 24.3507 4.816C25.7169 5.36089 26.9333 6.11111 28 7.06667L26.1 8.93333C25.2778 8.22222 24.3502 7.66667 23.3173 7.26667C22.2836 6.86667 21.1778 6.66667 20 6.66667C18.1111 6.66667 16.4222 7.16089 14.9333 8.14933C13.4444 9.13867 12.3222 10.4222 11.5667 12H20V14.6667H10.7667C10.6778 15.2667 10.6444 15.7947 10.6667 16.2507C10.6889 16.7058 10.7222 17.0667 10.7667 17.3333H20V20H11.5667C12.3222 21.5778 13.4444 22.8609 14.9333 23.8493C16.4222 24.8387 18.1111 25.3333 20 25.3333C21.1778 25.3333 22.2836 25.1333 23.3173 24.7333C24.3502 24.3333 25.2778 23.7778 26.1 23.0667L28 24.9333C26.9333 25.8889 25.7169 26.6387 24.3507 27.1827C22.9836 27.7276 21.5333 28 20 28Z" fill="#1C1B1F"/>
</g>
</svg>
