<svg width="24" height="24" viewBox="0 0 24 24" fill="none" xmlns="http://www.w3.org/2000/svg">
<mask id="mask0_42_1629" style="mask-type:alpha" maskUnits="userSpaceOnUse" x="0" y="0" width="24" height="24">
<rect width="24" height="24" fill="#D9D9D9"/>
</mask>
<g mask="url(#mask0_42_1629)">
<path d="M12 21L10.55 19.7C7.93333 17.3667 5.854 15.3374 4.312 13.612C2.77067 11.8874 2 10.0667 2 8.15002C2 6.58336 2.525 5.27502 3.575 4.22502C4.625 3.17502 5.93333 2.65002 7.5 2.65002C8.38333 2.65002 9.21667 2.83736 10 3.21202C10.7833 3.58736 11.45 4.10002 12 4.75002C12.55 4.10002 13.2167 3.58736 14 3.21202C14.7833 2.83736 15.6167 2.65002 16.5 2.65002C18.0667 2.65002 19.375 3.17502 20.425 4.22502C21.475 5.27502 22 6.58336 22 8.15002C22 10.0667 21.2293 11.8874 19.688 13.612C18.146 15.3374 16.0667 17.3667 13.45 19.7L12 21ZM12 18.3C14.3833 16.1334 16.3127 14.2667 17.788 12.7C19.2627 11.1334 20 9.61669 20 8.15002C20 7.15002 19.6667 6.31669 19 5.65002C18.3333 4.98336 17.5 4.65002 16.5 4.65002C15.7167 4.65002 14.9917 4.87069 14.325 5.31202C13.6583 5.75402 13.2 6.31669 12.95 7.00002H11.05C10.8 6.31669 10.3417 5.75402 9.675 5.31202C9.00833 4.87069 8.28333 4.65002 7.5 4.65002C6.5 4.65002 5.66667 4.98336 5 5.65002C4.33333 6.31669 4 7.15002 4 8.15002C4 9.61669 4.73767 11.1334 6.213 12.7C7.68767 14.2667 9.61667 16.1334 12 18.3Z" fill="#1C1B1F"/>
</g>
</svg>
