<svg width="26" height="26" viewBox="0 0 26 26" fill="none" xmlns="http://www.w3.org/2000/svg">
<path d="M3.89999 6.50002C3.89999 5.81046 4.17392 5.14914 4.66152 4.66155C5.14911 4.17395 5.81043 3.90002 6.49999 3.90002H19.5C20.1896 3.90002 20.8509 4.17395 21.3385 4.66155C21.8261 5.14914 22.1 5.81046 22.1 6.50002V19.5C22.1 20.1896 21.8261 20.8509 21.3385 21.3385C20.8509 21.8261 20.1896 22.1 19.5 22.1H6.49999C5.81043 22.1 5.14911 21.8261 4.66152 21.3385C4.17392 20.8509 3.89999 20.1896 3.89999 19.5V6.50002ZM6.49999 5.20002C6.15521 5.20002 5.82455 5.33699 5.58076 5.58079C5.33696 5.82458 5.19999 6.15524 5.19999 6.50002V19.5C5.19999 19.8448 5.33696 20.1755 5.58076 20.4193C5.82455 20.6631 6.15521 20.8 6.49999 20.8H19.5C19.8448 20.8 20.1754 20.6631 20.4192 20.4193C20.663 20.1755 20.8 19.8448 20.8 19.5V6.50002C20.8 6.15524 20.663 5.82458 20.4192 5.58079C20.1754 5.33699 19.8448 5.20002 19.5 5.20002H6.49999Z" fill="#DDA81E"/>
</svg>
