<svg width="70" height="70" viewBox="0 0 70 70" fill="none" xmlns="http://www.w3.org/2000/svg">
<path d="M26.2587 17.5C26.2587 15.1817 27.1797 12.9583 28.819 11.319C30.4583 9.67974 32.6817 8.75879 35 8.75879C37.3183 8.75879 39.5417 9.67974 41.181 11.319C42.8203 12.9583 43.7412 15.1817 43.7412 17.5C43.7412 19.8184 42.8203 22.0417 41.181 23.681C39.5417 25.3203 37.3183 26.2413 35 26.2413C32.6817 26.2413 30.4583 25.3203 28.819 23.681C27.1797 22.0417 26.2587 19.8184 26.2587 17.5ZM35 13.1338C34.4266 13.1338 33.8588 13.2467 33.3291 13.4661C32.7994 13.6856 32.318 14.0072 31.9126 14.4126C31.5072 14.8181 31.1855 15.2994 30.9661 15.8291C30.7467 16.3589 30.6337 16.9267 30.6337 17.5C30.6337 18.0734 30.7467 18.6412 30.9661 19.1709C31.1855 19.7007 31.5072 20.182 31.9126 20.5874C32.318 20.9929 32.7994 21.3145 33.3291 21.5339C33.8588 21.7534 34.4266 21.8663 35 21.8663C36.158 21.8663 37.2686 21.4063 38.0874 20.5874C38.9062 19.7686 39.3662 18.658 39.3662 17.5C39.3662 16.342 38.9062 15.2315 38.0874 14.4126C37.2686 13.5938 36.158 13.1338 35 13.1338ZM48.125 19.6875C48.125 18.8257 48.2947 17.9724 48.6245 17.1762C48.9543 16.38 49.4377 15.6565 50.0471 15.0472C50.6565 14.4378 51.3799 13.9544 52.1761 13.6246C52.9723 13.2948 53.8257 13.125 54.6875 13.125C55.5493 13.125 56.4027 13.2948 57.1989 13.6246C57.9951 13.9544 58.7185 14.4378 59.3279 15.0472C59.9373 15.6565 60.4207 16.38 60.7505 17.1762C61.0803 17.9724 61.25 18.8257 61.25 19.6875C61.25 21.428 60.5586 23.0972 59.3279 24.3279C58.0972 25.5586 56.428 26.25 54.6875 26.25C52.947 26.25 51.2778 25.5586 50.0471 24.3279C48.8164 23.0972 48.125 21.428 48.125 19.6875ZM54.6875 17.5C54.1073 17.5 53.5509 17.7305 53.1407 18.1407C52.7305 18.551 52.5 19.1074 52.5 19.6875C52.5 20.2677 52.7305 20.8241 53.1407 21.2343C53.5509 21.6446 54.1073 21.875 54.6875 21.875C55.2677 21.875 55.8241 21.6446 56.2343 21.2343C56.6445 20.8241 56.875 20.2677 56.875 19.6875C56.875 19.1074 56.6445 18.551 56.2343 18.1407C55.8241 17.7305 55.2677 17.5 54.6875 17.5ZM15.3125 13.125C13.572 13.125 11.9028 13.8164 10.6721 15.0472C9.4414 16.2779 8.75 17.9471 8.75 19.6875C8.75 21.428 9.4414 23.0972 10.6721 24.3279C11.9028 25.5586 13.572 26.25 15.3125 26.25C17.053 26.25 18.7222 25.5586 19.9529 24.3279C21.1836 23.0972 21.875 21.428 21.875 19.6875C21.875 17.9471 21.1836 16.2779 19.9529 15.0472C18.7222 13.8164 17.053 13.125 15.3125 13.125ZM13.125 19.6875C13.125 19.1074 13.3555 18.551 13.7657 18.1407C14.1759 17.7305 14.7323 17.5 15.3125 17.5C15.8927 17.5 16.4491 17.7305 16.8593 18.1407C17.2695 18.551 17.5 19.1074 17.5 19.6875C17.5 20.2677 17.2695 20.8241 16.8593 21.2343C16.4491 21.6446 15.8927 21.875 15.3125 21.875C14.7323 21.875 14.1759 21.6446 13.7657 21.2343C13.3555 20.8241 13.125 20.2677 13.125 19.6875ZM18.6725 30.625C17.9025 31.9544 17.498 33.4638 17.5 35H8.75V45.9375C8.74965 47.0258 9.01992 48.097 9.53648 49.0548C10.053 50.0126 10.7997 50.8269 11.7092 51.4244C12.6187 52.022 13.6625 52.3839 14.7467 52.4777C15.8309 52.5716 16.9214 52.3943 17.92 51.9619C18.2438 53.41 18.7513 54.7925 19.4075 56.0832C17.747 56.7536 15.9474 57.0061 14.1665 56.8185C12.3856 56.6308 10.6781 56.0088 9.19381 55.0071C7.70952 54.0053 6.4939 52.6544 5.65369 51.0731C4.81349 49.4917 4.3744 47.7282 4.375 45.9375V35C4.375 33.8397 4.83594 32.7269 5.65641 31.9064C6.47688 31.086 7.58968 30.625 8.75 30.625H18.6725ZM50.5925 56.0832C52.253 56.7536 54.0527 57.0061 55.8335 56.8185C57.6144 56.6308 59.3219 56.0088 60.8062 55.0071C62.2905 54.0053 63.5061 52.6544 64.3463 51.0731C65.1865 49.4917 65.6256 47.7282 65.625 45.9375V35C65.625 33.8397 65.1641 32.7269 64.3436 31.9064C63.5231 31.086 62.4103 30.625 61.25 30.625H51.3275C52.0713 31.9113 52.5 33.4032 52.5 35H61.25V45.9375C61.2504 47.0258 60.9801 48.097 60.4635 49.0548C59.947 50.0126 59.2003 50.8269 58.2908 51.4244C57.3813 52.022 56.3375 52.3839 55.2533 52.4777C54.1691 52.5716 53.0786 52.3943 52.08 51.9619C51.7519 53.41 51.2487 54.7925 50.5925 56.0832ZM26.25 30.6207C25.0897 30.6207 23.9769 31.0816 23.1564 31.9021C22.3359 32.7225 21.875 33.8353 21.875 34.9957V48.125C21.875 51.606 23.2578 54.9444 25.7192 57.4058C28.1806 59.8672 31.519 61.25 35 61.25C38.481 61.25 41.8194 59.8672 44.2808 57.4058C46.7422 54.9444 48.125 51.606 48.125 48.125V35C48.125 33.8397 47.6641 32.7269 46.8436 31.9064C46.0231 31.086 44.9103 30.625 43.75 30.625H26.25V30.6207ZM26.25 34.9957H43.75V48.125C43.75 50.4457 42.8281 52.6713 41.1872 54.3122C39.5462 55.9532 37.3206 56.875 35 56.875C32.6794 56.875 30.4538 55.9532 28.8128 54.3122C27.1719 52.6713 26.25 50.4457 26.25 48.125V35V34.9957Z" fill="#EBB220"/>
</svg>
