<svg width="71" height="71" viewBox="0 0 71 71" fill="none" xmlns="http://www.w3.org/2000/svg">
<path d="M70 35V34.9825C70 24.6254 65.4908 15.3241 58.3304 8.92787L58.2954 8.89871C58.207 8.80337 58.1082 8.71826 58.0008 8.64496L57.995 8.64204C51.6355 3.05817 43.4572 -0.0136182 34.9942 0.00287368C26.1508 0.00287368 18.0775 3.28704 11.9233 8.70621L11.9613 8.67412C11.8871 8.73039 11.8187 8.79389 11.7571 8.86371V8.86662C8.05738 12.1426 5.09599 16.1673 3.06909 20.6741C1.0422 25.181 -0.00392842 30.0671 1.10853e-05 35.0087C1.10853e-05 45.3629 4.50334 54.6641 11.6579 61.0633L11.6929 61.0925C11.7856 61.1975 11.8892 61.2924 12.0021 61.3754L12.0079 61.3783C18.3658 66.9539 26.5378 70.0212 34.9942 70.0058C43.49 70.0189 51.6971 66.9232 58.0679 61.3025L58.03 61.3345C61.7938 58.0622 64.8109 54.0196 66.877 49.4803C68.9432 44.9409 70.0102 40.0107 70.0059 35.0233V35.0029L70 35ZM56.9858 57.7645C55.2521 56.3621 53.3875 55.1295 51.4179 54.0837L51.2283 53.9904C53.0163 48.8366 54.0925 42.8954 54.1946 36.715V36.6683H66.6225C66.2034 44.664 62.7619 52.2019 56.9946 57.7558L56.9858 57.7645ZM36.6683 53.375C40.4104 53.5762 43.9075 54.3987 47.1333 55.7375L46.9233 55.6616C44.3392 61.5533 40.7021 65.6016 36.6683 66.4912V53.375ZM36.6683 50.0383V36.6683H50.8667C50.754 42.2049 49.794 47.6916 48.02 52.9375L48.1338 52.5554C44.5126 51.067 40.6612 50.2164 36.75 50.0412L36.6713 50.0383H36.6683ZM36.6683 33.3316V19.9616C40.6851 19.7783 44.6395 18.899 48.3554 17.3629L48.125 17.4475C49.7438 22.1695 50.7383 27.612 50.8667 33.2704V33.3316H36.6683ZM36.6683 16.625V3.51454C40.7021 4.40412 44.3392 8.43496 46.9233 14.3441C43.9075 15.5983 40.4104 16.4179 36.7529 16.622L36.6683 16.625ZM44.9925 4.95829C48.4294 6.10464 51.6437 7.83313 54.495 10.0683L54.4279 10.0158C53.1358 11.0308 51.6863 11.9875 50.1579 12.8187L49.9946 12.9004C48.7596 9.98583 47.0616 7.29008 44.9663 4.91746L44.9925 4.94954V4.95829ZM33.3258 3.52329V16.625C29.7281 16.4414 26.1885 15.6423 22.8608 14.2625L23.0708 14.3383C25.6667 8.44662 29.2979 4.40121 33.3317 3.51162L33.3258 3.52329ZM20.0025 12.8916C18.4215 12.041 16.915 11.0585 15.4992 9.95454L15.5692 10.007C18.3375 7.83749 21.4513 6.14945 24.78 5.01371L25.0017 4.94662C22.9612 7.25497 21.2986 9.87145 20.0754 12.6991L20.0025 12.8887V12.8916ZM33.3317 19.9587V33.3287H19.1333C19.2617 27.6091 20.2563 22.1666 21.9888 17.0625L21.875 17.4445C25.4948 18.9305 29.344 19.7801 33.2529 19.9558L33.3317 19.9587ZM33.3317 36.6654V50.0354C29.3149 50.2187 25.3605 51.098 21.6446 52.6341L21.875 52.5495C20.2563 47.8304 19.2617 42.385 19.1333 36.7266V36.6654H33.3317ZM33.3317 53.372V66.4825C29.2979 65.5929 25.6608 61.562 23.0767 55.6529C26.0925 54.3987 29.5896 53.582 33.2471 53.3779L33.3317 53.375V53.372ZM25.0192 65.0387C21.5832 63.8957 18.369 62.1712 15.5167 59.9404L15.5867 59.9929C16.8788 58.9779 18.3283 58.0212 19.8567 57.19L20.02 57.1083C21.2447 60.024 22.9427 62.7174 25.0454 65.0795L25.0192 65.0504V65.0387ZM49.9975 57.1054C51.6892 58.0241 53.1388 58.9779 54.5008 60.0425L54.4308 59.99C51.6625 62.1595 48.5488 63.8475 45.22 64.9833L44.9983 65.0504C47.0388 62.7431 48.7014 60.1276 49.9246 57.3008L49.9975 57.1112V57.1054ZM66.6225 33.3316H54.1946C54.1052 27.2969 53.0638 21.3141 51.1088 15.6041L51.2283 16.0066C53.2887 14.9218 55.2393 13.6403 57.0529 12.18L56.9829 12.2325C62.7383 17.7655 66.181 25.2753 66.6167 33.247L66.6196 33.3287L66.6225 33.3316ZM13.0142 12.2354C14.6942 13.6004 16.5813 14.8516 18.5821 15.9162L18.7717 16.0095C16.9838 21.1633 15.9075 27.1045 15.8054 33.285V33.3316H3.37459C3.7937 25.3359 7.23524 17.7981 13.0025 12.2441L13.0113 12.2354H13.0142ZM3.37751 36.6683H15.8054C15.8948 42.703 16.9363 48.6858 18.8913 54.3958L18.7717 53.9933C16.5813 55.157 14.6971 56.4083 12.9471 57.82L13.0171 57.7675C7.26174 52.2345 3.81899 44.7246 3.38334 36.7529L3.38043 36.6712L3.37751 36.6683Z" fill="#EBB220"/>
</svg>
