<svg width="22" height="22" viewBox="0 0 22 22" fill="none" xmlns="http://www.w3.org/2000/svg">
<mask id="mask0_215_1878" style="mask-type:alpha" maskUnits="userSpaceOnUse" x="0" y="0" width="22" height="22">
<rect width="22" height="22" fill="#D9D9D9"/>
</mask>
<g mask="url(#mask0_215_1878)">
<path d="M10.0834 21.0833V19.25C8.17364 19.0361 6.53525 18.2456 5.16819 16.8785C3.80052 15.5109 3.00975 13.8722 2.79586 11.9625H0.962524V10.1291H2.79586C3.00975 8.21941 3.80052 6.58102 5.16819 5.21397C6.53525 3.8463 8.17364 3.05552 10.0834 2.84163V1.0083H11.9167V2.84163C13.8264 3.05552 15.4651 3.8463 16.8328 5.21397C18.1998 6.58102 18.9903 8.21941 19.2042 10.1291H21.0375V11.9625H19.2042C18.9903 13.8722 18.1998 15.5109 16.8328 16.8785C15.4651 18.2456 13.8264 19.0361 11.9167 19.25V21.0833H10.0834ZM11 17.4625C12.7722 17.4625 14.2847 16.8361 15.5375 15.5833C16.7903 14.3305 17.4167 12.818 17.4167 11.0458C17.4167 9.27358 16.7903 7.76108 15.5375 6.5083C14.2847 5.25552 12.7722 4.62913 11 4.62913C9.2278 4.62913 7.7153 5.25552 6.46252 6.5083C5.20975 7.76108 4.58336 9.27358 4.58336 11.0458C4.58336 12.818 5.20975 14.3305 6.46252 15.5833C7.7153 16.8361 9.2278 17.4625 11 17.4625Z" fill="#1C1B1F"/>
</g>
</svg>
