<svg width="70" height="70" viewBox="0 0 70 70" fill="none" xmlns="http://www.w3.org/2000/svg">
<path d="M49.5833 49.5833H43.75V67.0833H37.9167V49.5833H31.7333L27.2417 55.2124L34.1542 62.0958L30.0125 66.2374L23.1292 59.3249C22.1083 58.3333 21.525 56.9624 21.4375 55.5333C21.35 54.1041 21.7875 52.6749 22.6917 51.5666L24.2667 49.5833H20.4167L26.25 37.9166V29.1666C24.4417 30.5374 22.9833 32.2874 21.9625 34.2999C20.9417 36.3416 20.4167 38.5583 20.4167 40.8333H14.5833C14.5841 35.4187 16.7354 30.226 20.5641 26.3973C24.3928 22.5686 29.5854 20.4174 35 20.4166C38.8792 20.4166 42.5833 18.8708 45.325 16.1583C48.0375 13.4166 49.5833 9.71242 49.5833 5.83325H55.4167C55.4167 9.68325 54.3083 13.4749 52.2375 16.7124C50.1781 19.974 47.2347 22.5835 43.75 24.2374V37.9166L49.5833 49.5833ZM40.8333 11.6666C40.8333 12.8333 40.4833 13.9416 39.8417 14.9041C39.2 15.8666 38.2958 16.6249 37.2458 17.0624C36.1777 17.5003 35.0039 17.6121 33.8723 17.3837C32.7407 17.1553 31.7021 16.597 30.8875 15.7791C30.0708 14.9624 29.5167 13.9416 29.2833 12.8041C29.05 11.6666 29.1667 10.4999 29.6042 9.44992C30.0417 8.37075 30.8 7.46659 31.7625 6.82492C32.725 6.18325 33.8333 5.83325 35 5.83325C36.5458 5.83325 38.0333 6.44575 39.1125 7.55409C40.2208 8.63325 40.8333 10.1208 40.8333 11.6666Z" fill="#EBB220"/>
</svg>
