<svg width="24" height="24" viewBox="0 0 24 24" fill="none" xmlns="http://www.w3.org/2000/svg">
<path d="M19 3H5C3.89 3 3 3.89 3 5V19C3 19.5304 3.21071 20.0391 3.58579 20.4142C3.96086 20.7893 4.46957 21 5 21H19C19.5304 21 20.0391 20.7893 20.4142 20.4142C20.7893 20.0391 21 19.5304 21 19V5C21 4.46957 20.7893 3.96086 20.4142 3.58579C20.0391 3.21071 19.5304 3 19 3Z" fill="#DDA81E"/>
<path fill-rule="evenodd" clip-rule="evenodd" d="M17.8047 7.20277C18.0651 7.47314 18.0651 7.91148 17.8047 8.18184L10.4714 15.7972C10.2111 16.0676 9.78894 16.0676 9.5286 15.7972L6.19526 12.3357C5.93491 12.0653 5.93491 11.627 6.19526 11.3566C6.45561 11.0863 6.87772 11.0863 7.13807 11.3566L10 14.3286L16.8619 7.20277C17.1223 6.93241 17.5444 6.93241 17.8047 7.20277Z" fill="white"/>
</svg>
