<svg width="70" height="70" viewBox="0 0 70 70" fill="none" xmlns="http://www.w3.org/2000/svg">
<mask id="mask0_228_2070" style="mask-type:alpha" maskUnits="userSpaceOnUse" x="0" y="0" width="70" height="70">
<rect width="70" height="70" fill="#D9D9D9"/>
</mask>
<g mask="url(#mask0_228_2070)">
<path d="M35 23.3333C33.3958 23.3333 32.0231 22.7616 30.8817 21.6183C29.7383 20.4769 29.1667 19.1041 29.1667 17.5C29.1667 15.8958 29.7383 14.523 30.8817 13.3816C32.0231 12.2383 33.3958 11.6666 35 11.6666C36.6042 11.6666 37.9779 12.2383 39.1213 13.3816C40.2626 14.523 40.8333 15.8958 40.8333 17.5C40.8333 19.1041 40.2626 20.4769 39.1213 21.6183C37.9779 22.7616 36.6042 23.3333 35 23.3333ZM19.8333 58.3333C18.375 58.3333 17.1354 57.8229 16.1146 56.802C15.0938 55.7812 14.5833 54.5416 14.5833 53.0833C14.5833 52.0625 14.875 51.1019 15.4583 50.2016C16.0417 49.3033 16.8194 48.6597 17.7917 48.2708L29.1667 43.75V37.1875C26.5417 40.25 23.4918 42.595 20.0171 44.2225C16.5404 45.8519 12.7847 46.6666 8.75 46.6666V40.8333C12.0556 40.8333 15.0578 40.1527 17.7567 38.7916C20.4536 37.4305 22.8958 35.4861 25.0833 32.9583L29.0208 28.2916C29.6042 27.6111 30.2847 27.1007 31.0625 26.7604C31.8403 26.4201 32.6667 26.25 33.5417 26.25H36.4583C37.3333 26.25 38.1597 26.4201 38.9375 26.7604C39.7153 27.1007 40.3958 27.6111 40.9792 28.2916L44.9167 32.9583C47.1042 35.4861 49.5474 37.4305 52.2463 38.7916C54.9432 40.1527 57.9444 40.8333 61.25 40.8333V46.6666C57.2153 46.6666 53.4606 45.8519 49.9858 44.2225C46.5092 42.595 43.4583 40.25 40.8333 37.1875V43.75L52.2083 48.2708C53.1806 48.6597 53.9583 49.3033 54.5417 50.2016C55.125 51.1019 55.4167 52.0625 55.4167 53.0833C55.4167 54.5416 54.9063 55.7812 53.8854 56.802C52.8646 57.8229 51.625 58.3333 50.1667 58.3333H29.1667V56.875C29.1667 55.6111 29.5799 54.5659 30.4063 53.7395C31.2326 52.9132 32.2778 52.5 33.5417 52.5H42.2917C42.7292 52.5 43.0821 52.3668 43.3504 52.1004C43.6168 51.832 43.75 51.4791 43.75 51.0416C43.75 50.6041 43.6168 50.2512 43.3504 49.9829C43.0821 49.7165 42.7292 49.5833 42.2917 49.5833H33.5417C31.5 49.5833 29.7743 50.2882 28.3646 51.6979C26.9549 53.1076 26.25 54.8333 26.25 56.875V58.3333H19.8333Z" fill="#EBB220"/>
</g>
</svg>
