<svg width="64" height="64" viewBox="0 0 64 64" fill="none" xmlns="http://www.w3.org/2000/svg">
<path d="M0 32C0 14.3269 14.3269 0 32 0C49.6731 0 64 14.3269 64 32C64 49.6731 49.6731 64 32 64C14.3269 64 0 49.6731 0 32Z" fill="#EBB220"/>
<path d="M31.9411 23.5452C31.9958 22.0575 32.4138 20.7507 33.1852 19.6584C33.9605 18.5605 35.2422 17.7806 36.9967 17.3386C37.0084 17.3926 37.0205 17.4467 37.0331 17.5006V17.7832C37.0331 18.4242 36.8776 19.1592 36.5708 19.9676C36.2492 20.7504 35.7466 21.4871 35.079 22.152C34.4546 22.7378 33.8771 23.1257 33.3666 23.301C33.198 23.3514 32.967 23.4009 32.688 23.4455C32.4398 23.4842 32.1908 23.5174 31.9411 23.5452Z" fill="white"/>
<path d="M32.2338 25.7527C30.252 25.7527 28.8761 24 26.9212 24C24.9664 24 20.9391 25.7968 20.9391 32C20.9391 38.2032 24.5154 42.2 24.9153 42.6667C25.3153 43.1334 26.2404 44.333 27.6735 44.333C29.1067 44.333 30.6757 43.1935 32.2338 43.1935C33.7918 43.1935 35.7529 44.333 37.0331 44.333C38.3134 44.333 38.84 43.8111 39.7113 42.9109C40.5826 42.0107 42.2445 39.2635 42.8249 37.6147C41.8689 37.0457 39.3351 35.5007 39.3351 32C39.3351 29.6661 40.1879 27.7273 41.8937 26.1835C40.7747 24.7278 39.4768 24 38.0001 24C35.7849 24 34.2155 25.7527 32.2338 25.7527Z" stroke="white" stroke-width="2.66667" stroke-linejoin="round"/>
</svg>
