<svg width="70" height="70" viewBox="0 0 70 70" fill="none" xmlns="http://www.w3.org/2000/svg">
<mask id="mask0_228_2061" style="mask-type:alpha" maskUnits="userSpaceOnUse" x="0" y="0" width="70" height="70">
<rect width="70" height="70" fill="#D9D9D9"/>
</mask>
<g mask="url(#mask0_228_2061)">
<path d="M35 64.1667C31.4514 63.7292 27.9271 62.7686 24.4271 61.285C20.9271 59.8034 17.8033 57.6771 15.0558 54.9063C12.3103 52.1355 10.0868 48.6355 8.38542 44.4063C6.68403 40.1771 5.83333 35.0973 5.83333 29.1667V26.25H8.75C11.2292 26.25 13.7812 26.566 16.4062 27.198C19.0312 27.8299 21.4861 28.7778 23.7708 30.0417C24.3542 25.8612 25.6793 21.5707 27.7462 17.1705C29.8112 12.7721 32.2292 8.9931 35 5.83337C37.7708 8.9931 40.1897 12.7721 42.2567 17.1705C44.3217 21.5707 45.6458 25.8612 46.2292 30.0417C48.5139 28.7778 50.9687 27.8299 53.5937 27.198C56.2187 26.566 58.7708 26.25 61.25 26.25H64.1667V29.1667C64.1667 35.0973 63.316 40.1771 61.6146 44.4063C59.9132 48.6355 57.6887 52.1355 54.9412 54.9063C52.1957 57.6771 49.0856 59.8034 45.6108 61.285C42.1342 62.7686 38.5972 63.7292 35 64.1667ZM34.8542 58.1875C34.3194 50.1181 31.9258 44.0174 27.6733 39.8855C23.4189 35.7535 18.1319 33.2014 11.8125 32.2292C12.3472 40.5417 14.8147 46.7396 19.215 50.823C23.6133 54.9063 28.8264 57.3612 34.8542 58.1875ZM35 39.6667C35.7292 38.5973 36.6168 37.4909 37.6629 36.3475C38.7071 35.2062 39.7153 34.2223 40.6875 33.3959C40.5903 30.625 40.0429 27.7327 39.0454 24.7188C38.0499 21.7049 36.7014 18.7639 35 15.8959C33.2986 18.7639 31.9501 21.7049 30.9546 24.7188C29.9571 27.7327 29.4097 30.625 29.3125 33.3959C30.2847 34.2223 31.3056 35.2062 32.375 36.3475C33.4444 37.4909 34.3194 38.5973 35 39.6667ZM40.6875 56.875C42.4861 56.2917 44.3576 55.441 46.3021 54.323C48.2465 53.2049 50.0578 51.6853 51.7358 49.7642C53.4119 47.845 54.846 45.4514 56.0379 42.5834C57.2279 39.7153 57.9444 36.2639 58.1875 32.2292C53.6181 32.9098 49.6076 34.4284 46.1562 36.785C42.7049 39.1437 40.0556 42.1459 38.2083 45.7917C38.7917 47.3473 39.2904 49.0487 39.7046 50.8959C40.1168 52.7431 40.4444 54.7361 40.6875 56.875Z" fill="#EBB220"/>
</g>
</svg>
