<svg width="34" height="34" viewBox="0 0 34 34" fill="none" xmlns="http://www.w3.org/2000/svg">
<mask id="mask0_226_1712" style="mask-type:alpha" maskUnits="userSpaceOnUse" x="0" y="0" width="34" height="34">
<rect width="34" height="34" fill="#D9D9D9"/>
</mask>
<g mask="url(#mask0_226_1712)">
<path d="M12.75 8.50008H15.5833V5.66675H12.75V8.50008ZM18.4167 8.50008V5.66675H21.25V8.50008H18.4167ZM12.75 19.8334V17.0001H15.5833V19.8334H12.75ZM24.0833 14.1667V11.3334H26.9167V14.1667H24.0833ZM24.0833 19.8334V17.0001H26.9167V19.8334H24.0833ZM18.4167 19.8334V17.0001H21.25V19.8334H18.4167ZM24.0833 8.50008V5.66675H26.9167V8.50008H24.0833ZM15.5833 11.3334V8.50008H18.4167V11.3334H15.5833ZM7.08334 28.3334V5.66675H9.91668V8.50008H12.75V11.3334H9.91668V14.1667H12.75V17.0001H9.91668V28.3334H7.08334ZM21.25 17.0001V14.1667H24.0833V17.0001H21.25ZM15.5833 17.0001V14.1667H18.4167V17.0001H15.5833ZM12.75 14.1667V11.3334H15.5833V14.1667H12.75ZM18.4167 14.1667V11.3334H21.25V14.1667H18.4167ZM21.25 11.3334V8.50008H24.0833V11.3334H21.25Z" fill="#EBB220"/>
</g>
</svg>
