<svg width="70" height="70" viewBox="0 0 70 70" fill="none" xmlns="http://www.w3.org/2000/svg">
<path d="M22.5225 20.1355C22.2565 20.797 22.0255 21.4655 21.8295 22.148C22.918 22.4805 24.0345 22.848 25.151 23.261C25.8009 20.9437 26.9248 18.7865 28.4515 16.926L39.5255 28L37.443 30.0825C38.3277 30.8449 39.1581 31.6682 39.928 32.5465L42 30.4745L53.0775 41.552C51.2316 43.0643 49.0943 44.1806 46.7985 44.8315C47.208 45.9515 47.5755 47.0645 47.908 48.1565C51.5299 47.0987 54.7978 45.0802 57.365 42.315C59.0326 40.5277 60.3757 38.4633 61.334 36.2145C63.175 31.8745 63.49 27.0445 62.279 22.5365C61.32 18.9876 59.4478 15.752 56.849 13.1519C54.2502 10.5519 51.0154 8.67818 47.467 7.71749C43.0555 6.53562 38.3796 6.81812 34.1425 8.52249C31.5266 9.58136 29.1501 11.1549 27.1541 13.1498C25.158 15.1447 23.583 17.5203 22.5225 20.1355ZM58.24 21.4655C57.1452 22.1888 55.8693 22.5903 54.5576 22.6243C53.2458 22.6583 51.9509 22.3235 50.82 21.658L55.552 16.9225C56.6965 18.3225 57.5925 19.8555 58.24 21.4655ZM48.2895 24.185C51.527 26.4915 55.776 26.74 59.2305 24.9375C59.6733 27.4202 59.5738 29.9694 58.9389 32.4101C58.3039 34.8508 57.1485 37.1253 55.552 39.0775L44.4745 28L48.2895 24.185ZM45.815 21.7105L42 25.5255L30.926 14.448C32.8779 12.8521 35.1518 11.6972 37.5918 11.0622C40.0318 10.4273 42.5803 10.3274 45.0625 10.7695C44.169 12.4858 43.7665 14.4154 43.8992 16.3459C44.032 18.2763 44.6949 20.1326 45.815 21.7105ZM48.342 19.18C47.677 18.0488 47.3428 16.7537 47.3774 15.4419C47.4121 14.1302 47.8142 12.8545 48.538 11.76C50.148 12.4075 51.6775 13.3035 53.0775 14.448L48.342 19.18ZM21.5145 39.011C21.8427 38.6829 22.2877 38.4986 22.7517 38.4986C23.2158 38.4986 23.6608 38.6829 23.989 39.011L30.989 46.011C31.3176 46.3391 31.5024 46.7844 31.5027 47.2487C31.503 47.7131 31.3189 48.1586 30.9907 48.4872C30.6626 48.8158 30.2174 49.0006 29.753 49.001C29.2886 49.0013 28.8431 48.8171 28.5145 48.489L21.5145 41.489C21.3515 41.3264 21.2222 41.1333 21.134 40.9207C21.0458 40.7081 21.0004 40.4802 21.0004 40.25C21.0004 40.0198 21.0458 39.7919 21.134 39.5793C21.2222 39.3667 21.3515 39.1735 21.5145 39.011ZM7.14 31.0835C6.89334 30.0929 6.90476 29.0557 7.17316 28.0708C7.44156 27.0859 7.95798 26.1863 8.6731 25.4578C9.38822 24.7293 10.2782 24.1964 11.2579 23.9098C12.2377 23.6233 13.2745 23.5927 14.2695 23.821C17.4615 24.493 21.504 25.543 25.466 27.132C29.407 28.714 33.3795 30.8735 36.33 33.8205C39.284 36.778 41.433 40.7505 42.994 44.688C44.5655 48.643 45.584 52.6715 46.2315 55.8495C46.4506 56.8387 46.414 57.8674 46.1252 58.8386C45.8365 59.8098 45.3051 60.6914 44.5812 61.4002C43.8573 62.1091 42.9647 62.6218 41.9877 62.8901C41.0107 63.1583 39.9814 63.1733 38.997 62.9335C32.8545 61.5545 23.135 58.611 17.3355 52.815C11.55 47.026 8.561 37.268 7.14 31.0835ZM13.5485 27.2475C11.6445 26.8485 10.1185 28.4025 10.5525 30.303C11.963 36.456 14.791 45.318 19.81 50.3405C24.836 55.3665 33.656 58.1455 39.7635 59.521C41.6465 59.941 43.1865 58.436 42.8015 56.546C42.0891 52.9409 41.0656 49.4043 39.7425 45.976C38.269 42.2625 36.337 38.78 33.8555 36.295C31.3775 33.817 27.888 31.8745 24.1605 30.38C20.4505 28.889 16.6215 27.8915 13.5485 27.2475Z" fill="#EBB220"/>
</svg>
